HIERARCHY
ROOT hip
{
  OFFSET 0 0 0
  CHANNELS 6 Xposition Yposition Zposition Zrotation Yrotation Xrotation
  JOINT abdomen
  {
    OFFSET 0 20.6881 -0.73152
    CHANNELS 3 Zrotation Xrotation Yrotation
    JOINT chest
    {
      OFFSET 0 11.7043 -0.48768
      CHANNELS 3 Zrotation Xrotation Yrotation
      JOINT neck
      {
        OFFSET 0 22.1894 -2.19456
        CHANNELS 3 Zrotation Xrotation Yrotation
        JOINT head
        {
          OFFSET -0.24384 7.07133 1.2192
          CHANNELS 3 Zrotation Xrotation Yrotation
          JOINT leftEye
          {
            OFFSET 4.14528 8.04674 8.04672
            CHANNELS 3 Zrotation Xrotation Yrotation
            End Site
            {
              OFFSET 1 0 0
            }
          }
          JOINT rightEye
          {
            OFFSET -3.6576 8.04674 8.04672
            CHANNELS 3 Zrotation Xrotation Yrotation
            End Site
            {
              OFFSET 1 0 0
            }
          }
        }
      }
      JOINT rCollar
      {
        OFFSET -2.68224 19.2634 -4.8768
        CHANNELS 3 Zrotation Xrotation Yrotation
        JOINT rShldr
        {
          OFFSET -8.77824 -1.95073 1.46304
          CHANNELS 3 Zrotation Xrotation Yrotation
          JOINT rForeArm
          {
            OFFSET -28.1742 -1.7115 0.48768
            CHANNELS 3 Zrotation Xrotation Yrotation
            JOINT rHand
            {
              OFFSET -22.5879 0.773209 7.07136
              CHANNELS 3 Zrotation Xrotation Yrotation
              JOINT rThumb1
              {
                OFFSET -1.2192 -0.487915 3.41376
                CHANNELS 3 Zrotation Xrotation Yrotation
                JOINT rThumb2
                {
                  OFFSET -3.37035 -0.52449 3.41376
                  CHANNELS 3 Zrotation Xrotation Yrotation
                  End Site
                  {
                    OFFSET -1.78271 -1.18214 1.43049
                  }
                }
              }
              JOINT rIndex1
              {
                OFFSET -7.75947 0.938293 5.60832
                CHANNELS 3 Zrotation Xrotation Yrotation
                JOINT rIndex2
                {
                  OFFSET -2.54057 -0.884171 1.56538
                  CHANNELS 3 Zrotation Xrotation Yrotation
                  End Site
                  {
                    OFFSET -1.62519 -0.234802 1.16502
                  }
                }
              }
              JOINT rMid1
              {
                OFFSET -8.24714 1.18213 3.41376
                CHANNELS 3 Zrotation Xrotation Yrotation
                JOINT rMid2
                {
                  OFFSET -3.10165 -0.590103 1.0647
                  CHANNELS 3 Zrotation Xrotation Yrotation
                  End Site
                  {
                    OFFSET -2.48547 -0.328903 0.83742
                  }
                }
              }
              JOINT rRing1
              {
                OFFSET -8.82822 0.546677 1.51678
                CHANNELS 3 Zrotation Xrotation Yrotation
                JOINT rRing2
                {
                  OFFSET -2.60934 -0.819778 -0.0198488
                  CHANNELS 3 Zrotation Xrotation Yrotation
                  End Site
                  {
                    OFFSET -2.33842 -0.294052 0.168128
                  }
                }
              }
              JOINT rPinky1
              {
                OFFSET -8.27202 -0.0477905 -0.4584
                CHANNELS 3 Zrotation Xrotation Yrotation
                JOINT rPinky2
                {
                  OFFSET -1.82734 -0.647385 -0.700984
                  CHANNELS 3 Zrotation Xrotation Yrotation
                  End Site
                  {
                    OFFSET -1.69225 -0.51767 -0.607171
                  }
                }
              }
            }
          }
        }
      }
      JOINT lCollar
      {
        OFFSET 2.68224 19.2634 -4.8768
        CHANNELS 3 Zrotation Xrotation Yrotation
        JOINT lShldr
        {
          OFFSET 8.77824 -1.95073 1.46304
          CHANNELS 3 Zrotation Xrotation Yrotation
          JOINT lForeArm
          {
            OFFSET 28.1742 -1.7115 0.48768
            CHANNELS 3 Zrotation Xrotation Yrotation
            JOINT lHand
            {
              OFFSET 22.5879 0.773209 7.07136
              CHANNELS 3 Zrotation Xrotation Yrotation
              JOINT lThumb1
              {
                OFFSET 1.2192 -0.487915 3.41376
                CHANNELS 3 Zrotation Xrotation Yrotation
                JOINT lThumb2
                {
                  OFFSET 3.37035 -0.52449 3.41376
                  CHANNELS 3 Zrotation Xrotation Yrotation
                  End Site
                  {
                    OFFSET 1.78271 -1.18214 1.43049
                  }
                }
              }
              JOINT lIndex1
              {
                OFFSET 7.75947 0.938293 5.60832
                CHANNELS 3 Zrotation Xrotation Yrotation
                JOINT lIndex2
                {
                  OFFSET 2.54057 -0.884171 1.56538
                  CHANNELS 3 Zrotation Xrotation Yrotation
                  End Site
                  {
                    OFFSET 1.62519 -0.234802 1.16502
                  }
                }
              }
              JOINT lMid1
              {
                OFFSET 8.24714 1.18213 3.41376
                CHANNELS 3 Zrotation Xrotation Yrotation
                JOINT lMid2
                {
                  OFFSET 3.10165 -0.590103 1.0647
                  CHANNELS 3 Zrotation Xrotation Yrotation
                  End Site
                  {
                    OFFSET 2.48547 -0.328903 0.83742
                  }
                }
              }
              JOINT lRing1
              {
                OFFSET 8.82822 0.546677 1.51678
                CHANNELS 3 Zrotation Xrotation Yrotation
                JOINT lRing2
                {
                  OFFSET 2.60934 -0.819778 -0.0198488
                  CHANNELS 3 Zrotation Xrotation Yrotation
                  End Site
                  {
                    OFFSET 2.33842 -0.294052 0.168128
                  }
                }
              }
              JOINT lPinky1
              {
                OFFSET 8.27202 -0.0477905 -0.4584
                CHANNELS 3 Zrotation Xrotation Yrotation
                JOINT lPinky2
                {
                  OFFSET 1.82734 -0.647385 -0.700984
                  CHANNELS 3 Zrotation Xrotation Yrotation
                  End Site
                  {
                    OFFSET 1.69225 -0.51767 -0.607171
                  }
                }
              }
            }
          }
        }
      }
    }
  }
  JOINT rButtock
  {
    OFFSET -8.77824 4.35084 1.2192
    CHANNELS 3 Zrotation Xrotation Yrotation
    JOINT rThigh
    {
      OFFSET 0 -1.70687 -2.19456
      CHANNELS 3 Zrotation Xrotation Yrotation
      JOINT rShin
      {
        OFFSET 0 -36.8199 0.73152
        CHANNELS 3 Zrotation Xrotation Yrotation
        JOINT rFoot
        {
          OFFSET 0.73152 -45.1104 -5.12064
          CHANNELS 3 Zrotation Xrotation Yrotation
          End Site
          {
            OFFSET -1.1221 -3.69964 12.103
          }
        }
      }
    }
  }
  JOINT lButtock
  {
    OFFSET 8.77824 4.35084 1.2192
    CHANNELS 3 Zrotation Xrotation Yrotation
    JOINT lThigh
    {
      OFFSET 0 -1.70687 -2.19456
      CHANNELS 3 Zrotation Xrotation Yrotation
      JOINT lShin
      {
        OFFSET 0 -36.8199 0.73152
        CHANNELS 3 Zrotation Xrotation Yrotation
        JOINT lFoot
        {
          OFFSET -0.73152 -45.1104 -5.12064
          CHANNELS 3 Zrotation Xrotation Yrotation
          End Site
          {
            OFFSET 1.1221 -3.69964 12.103
          }
        }
      }
    }
  }
}
MOTION
Frames:	7
Frame Time:	0.03333
-25.3556 59.1785 9.1195 -117.203958 -84.615725 125.112523 0.270237 7.714364 -24.468731 2.400141 -8.238044 45.245001 -4.214785 24.169903 -81.691831 41.145064 2.734477 82.835075 -1.993755 0.860548 -46.68876 12.938766 -3.010684 -26.095998 -3.877086 32.390474 1.109597 -4.362645 39.341883 80.769448 114.568703 63.247323 98.139549 -118.973823 49.112239 100.462185 88.246984 -46.671324 39.490258 -170.513445 -18.606457 129.120541 -62.826116 46.046446 51.137686 42.389072 -37.181036 -9.97256 82.867446 -85.423296 52.497919 -123.505782 47.485483 104.846426 -19.770472 43.256368 14.288546 -38.708737 58.37812 61.673625 -150.406204 9.186219 -138.507283 -75.037481 -56.167242 -72.7312 83.95166 63.095264 -84.837063 107.204097 21.526721 -73.289953 -64.521457 -25.26499 80.604516 -177.446237 16.03657 -150.556549 100.642129 44.66733 -56.414372 135.716133 -12.325601 -70.960016 52.595369 46.488791 -32.308594 -89.669185 -51.909157 -50.08006 -17.557414 -22.708255 -6.234487 -158.471493 -57.486035 -154.704256 137.770721 -17.33107 160.681199 -81.192757 86.156608 52.194697 147.580893 41.336565 147.214914 -89.68654 74.159049 27.835027 -153.39725 73.483636 -27.58152 156.031921 41.375879 -146.076693 -79.87175 -39.987451 -159.319726 2.561708 47.647154 -121.513241 -126.101478 72.892296 -35.056616 -172.142728 11.606132 71.555308 64.614989 39.40065 -84.763305 14.392696 6.702355 18.73109
-25.5519 60.0406 10.166500000000001 -38.633393 -84.475989 46.603559 -0.901103 4.109464 -152.409095 2.878292 3.095743 172.543925 18.222425 25.409836 115.33563 -34.519893 31.412535 -112.251647 2.642582 -1.099374 -45.170873 13.959865 -3.185393 -25.590889 -155.13872 -6.977322 171.079125 4.741936 64.108653 -57.498172 -176.245357 49.62713 -74.300894 -13.272661 -30.990308 -8.367302 -174.670739 -5.700405 83.486668 -140.264261 2.080727 49.55005 -11.910911 20.168883 7.572792 -4.78799 41.245142 -11.030464 -35.508896 59.269246 30.406512 -161.637009 -50.320077 166.314748 -85.557073 -64.944804 -92.995234 89.395686 84.739301 -60.194582 -157.643052 17.709978 -137.508496 -80.834243 -56.534318 -73.578716 158.686685 -4.901194 -154.440317 64.788793 -19.724598 25.573968 -4.806302 15.464176 109.738974 -162.66426 -29.103441 -143.716172 173.403933 -7.512852 -98.556533 112.467588 25.244587 -54.595954 49.078817 44.787959 -28.00281 175.727145 -16.529295 -98.723103 13.442147 33.00275 -22.515749 165.612908 -21.034865 -177.834654 147.381703 6.138162 166.765222 164.564106 48.271304 165.187931 38.978499 -43.524017 39.665217 142.844151 -36.599368 139.119178 -28.272403 1.301751 -13.457132 21.358138 -29.872448 85.244716 74.257051 -6.191299 -101.323215 60.795166 -29.071093 -1.881804 34.959991 4.469323 16.535366 -22.157642 -63.572484 -99.152521 -69.612775 -25.798442 88.14677 155.645109 -22.012095 -40.683612
-25.6621 61.463100000000004 10.9071 -9.282862 -72.092967 17.927712 -1.231059 9.447144 0.151487 -0.536954 -7.895427 17.218858 18.151052 20.837125 94.37374 -37.429074 21.184889 -101.172204 18.066659 -7.773192 -46.277473 17.314275 -3.98169 -25.720977 -6.836286 44.554665 5.787154 -117.100933 5.66079 97.678618 105.938331 -24.79503 -114.881753 -42.244569 45.007552 22.968778 179.369769 -5.515838 81.427544 -131.31305 5.008095 33.843682 -160.711323 -46.029169 134.126915 -156.305922 -9.120318 111.635562 -154.749713 -2.177183 146.600784 -68.205677 55.973081 85.883631 2.146953 26.913709 -3.19882 -169.637091 -2.942783 156.951279 -162.684096 40.280913 -140.920899 -80.290837 -56.721073 -73.751057 141.942952 34.156634 -138.965329 72.014974 7.223696 -19.485306 89.779205 -7.010146 99.801311 -25.157047 -52.34433 -16.821326 178.184131 -10.522941 -100.923638 169.11895 11.731971 -101.303049 16.118634 15.381341 -1.138118 12.913918 40.137186 -29.691791 153.976271 -31.35435 -140.864724 176.097861 -52.867439 -104.037087 82.09561 -59.571522 92.090281 -23.722103 -80.958449 8.705979 -10.346591 81.019273 -24.055417 -6.720963 -2.582713 12.034409 122.136162 71.284865 36.472063 -161.480464 38.175846 166.966963 -87.438635 -65.587684 -74.850628 84.577669 -17.605516 166.501239 -33.10909 22.679774 -31.050982 102.064127 -34.485805 -70.87034 -70.931556 -65.608121 -6.727717 65.130875 -22.79217 154.140552
-26.8826 61.4452 11.8535 -3.071554 -63.032172 10.70355 -2.387847 11.822159 11.50476 -1.325534 -9.240725 1.175631 11.459959 13.081425 55.354758 -32.849014 -5.570602 -76.466317 17.133205 -0.434538 -2.884025 9.409508 -0.981063 -11.878356 -12.318969 43.515025 10.692099 -109.123846 2.673809 75.59261 8.921378 23.498995 -135.409382 -170.88239 3.821224 142.27149 -162.688878 8.06262 76.021745 23.534269 -28.643318 54.454577 -2.66305 0.33377 -2.31627 18.227842 9.631169 3.882868 -21.244748 57.566252 17.094092 -10.727829 13.811653 -24.683674 -62.624386 -60.62845 -92.501894 -117.587253 37.235578 138.798651 -178.940667 52.862084 -131.943566 -13.117557 -19.771529 5.516571 0.572901 -1.70833 -5.520777 89.925529 -16.666541 -145.427605 156.210776 -31.900075 113.743446 2.563012 10.750946 0.88479 122.969504 29.96621 -70.171216 -27.838319 -37.480192 -35.884682 53.985892 35.194165 -36.652695 -4.047824 12.710392 -14.342739 143.070223 -9.056549 -140.471393 -48.893514 -14.928662 -9.620777 24.139025 74.748327 -23.507783 2.668008 -64.809231 2.907704 20.332954 -22.689977 16.207421 133.856824 28.649235 150.818759 -1.176411 1.436621 1.541948 -14.180044 -39.367411 57.157426 75.619332 0.545712 -79.864919 -91.02117 12.321882 2.779612 -89.094209 62.004226 -47.232103 147.118704 6.441731 -180.0 81.411241 -46.802904 -9.760189 149.045981 -64.808141 41.783404
-29.4433 61.085 13.5817 -1.311659 -53.93543 6.413265 0.709338 14.483006 -57.069798 9.798974 -6.671102 63.004777 -5.58246 13.3799 -13.862089 12.26493 -26.24079 -3.17198 -9.150244 1.900969 -23.426137 8.227875 1.757038 24.070157 -11.281146 24.414918 7.301566 -125.752012 -5.717903 76.402964 179.733431 -22.101152 -78.63703 -15.784676 3.345875 -0.868611 -165.296543 10.862647 83.743102 168.45641 -12.499666 64.707008 177.465754 -43.069273 98.497428 72.262385 -55.672087 26.674334 2.481455 -0.513349 -18.358296 6.325075 -19.101402 38.872658 -66.921668 -49.462384 -103.117808 -127.185341 -20.54271 159.590016 1.880558 15.133638 -5.934094 -153.246455 79.334092 -129.287209 140.389731 37.666169 -147.479324 80.698062 12.60071 -6.135591 162.210987 -44.49857 126.654053 8.742535 9.820388 0.384307 -91.756686 -39.595231 -42.416602 75.32795 -72.265017 93.654202 129.20728 3.12166 -116.788266 130.619665 52.621265 -101.954943 136.244058 -9.040591 -143.39873 -54.900817 -29.737024 -17.108454 24.913354 85.457981 -38.287236 16.717253 -25.907709 9.884809 -14.549387 -2.13162 4.987948 85.761108 -56.356574 78.388637 -6.304615 1.923622 -3.197831 -8.089516 -45.63331 -5.914406 80.663095 59.416527 29.663836 152.927822 46.354747 131.242363 -50.599578 28.857052 -53.610499 98.379751 -6.181709 -42.381525 -85.920064 -18.695184 0.652737 -84.740367 77.592817 178.777625
-32.742900000000006 60.75580000000001 15.9037 -0.095996 -46.497368 2.103384 -1.003178 18.31712 1.818095 1.985062 -15.424522 1.879617 -7.514714 31.742165 -128.148274 32.094059 31.79598 100.112791 -24.918514 6.461085 -28.660529 13.610034 9.187226 67.90472 -66.513963 -84.618637 -82.938361 104.169528 14.219642 -18.060394 -173.372603 -61.462565 39.408473 -168.662847 -9.316764 144.186291 149.158742 -32.752586 88.749874 -126.679846 -62.179662 -147.741708 -131.356907 -6.637866 91.901041 63.676489 -5.881281 -0.725771 -39.592709 -72.820373 -72.479964 11.486778 49.821102 34.96392 -69.494344 -46.265852 -98.808719 53.380039 26.318773 -2.95482 70.358267 79.019149 -34.667262 -116.045701 19.916759 169.674485 -5.998013 -17.985129 2.699827 -20.409286 66.106701 -87.682398 -177.685517 3.62613 -104.650066 175.472604 -15.896659 -146.452512 -5.249869 -7.217352 -16.154158 -11.703315 -0.981071 31.612027 -18.065785 2.369349 -0.390426 -178.166317 -33.777815 -92.798078 72.598065 53.373678 -89.313597 125.417455 -2.789942 -155.372707 -29.985167 41.44723 7.403093 55.33575 -83.476425 37.451488 16.29271 70.293861 -89.867156 -172.860134 70.591142 82.776494 -176.060936 80.218646 0.0 160.385753 27.345085 -0.0 84.333278 83.122041 121.576889 172.38224 10.374295 -130.003902 -1.143558 -8.476367 -7.712229 9.311587 -35.697456 15.695271 4.550597 87.03023 89.08839 -100.166234 45.110483 -3.230874
-36.6273 60.636900000000004 18.2346 0.261531 -39.785389 -2.20082 -0.113668 15.717305 -176.246291 -0.582424 10.807485 -176.357052 17.953605 22.30592 85.617631 -34.161428 15.720588 -109.730187 -19.644769 5.814818 -32.697541 12.485338 3.909061 34.65305 -78.690951 -77.875945 -99.350448 18.134778 -64.175135 -77.191736 173.975875 8.936439 -65.675032 -20.217711 11.35474 2.50298 -3.611413 -14.168406 -9.309888 90.390659 -84.510614 -26.677644 -151.806329 -29.536401 96.174858 -172.965586 -48.952324 55.774886 0.713577 -43.134071 -33.455292 -2.865785 28.854776 48.498744 -73.751277 85.50831 80.751115 -17.452298 -4.362516 18.020188 9.158226 13.601018 -10.703074 29.727343 78.750653 43.08421 150.646283 9.960389 -149.016266 75.344005 21.093196 18.381533 101.701838 -46.164018 80.216273 4.582666 -32.606027 4.428282 165.103399 0.314685 -73.119656 166.040858 3.596885 -57.818206 128.059242 11.046986 -102.306219 -176.647352 -2.80969 -110.074639 145.740588 -11.953152 -132.319371 95.594767 18.607875 -78.213991 123.444134 34.902701 173.884229 110.863208 -23.020194 136.078947 -31.363867 -13.67122 -32.556216 142.685609 -7.845775 81.882027 1.015486 -10.771573 -1.093054 -23.605852 -41.661746 70.988421 77.662773 -20.293137 10.606236 46.157571 65.301172 -129.801019 0.227186 -5.769793 2.258681 1.09029 -32.04541 -180.0 68.795124 -72.487851 162.946208 64.531644 -41.395874 137.617533
